<?xml version="1.0" encoding="UTF-8" ?>
<!DOCTYPE svg PUBLIC "-//W3C//DTD SVG 1.1//EN" "http://www.w3.org/Graphics/SVG/1.1/DTD/svg11.dtd">
<svg width="775pt" height="145pt" viewBox="0 0 775 145" version="1.1" xmlns="http://www.w3.org/2000/svg">
<g id="#ffffffff">
</g>
<g id="#38332bff">
<path fill="#38332b" opacity="1.00" d=" M 211.78 20.84 C 222.67 10.08 237.55 3.04 252.99 2.97 C 263.81 3.21 274.34 5.95 284.76 8.64 C 284.01 12.71 282.89 16.71 282.15 20.78 C 277.10 18.11 272.29 14.76 266.61 13.56 C 256.78 11.41 245.86 10.78 236.79 15.86 C 223.42 22.93 215.52 37.01 211.39 51.07 C 208.16 62.24 205.87 74.64 210.34 85.79 C 212.85 92.31 219.12 96.92 226.00 97.77 C 234.92 98.67 244.22 97.43 252.17 93.12 C 255.36 80.40 258.22 67.56 261.87 54.98 C 267.05 54.79 272.24 54.99 277.43 54.92 C 270.60 81.93 263.86 108.96 257.15 136.00 C 251.86 136.00 246.57 136.00 241.28 136.00 C 244.33 124.48 247.20 112.91 249.98 101.33 C 240.87 107.23 229.73 110.33 218.90 108.53 C 209.79 107.49 200.67 103.15 195.42 95.41 C 190.13 87.72 188.80 78.01 189.54 68.88 C 191.22 50.98 198.85 33.46 211.78 20.84 Z" />
<path fill="#38332b" opacity="1.00" d=" M 302.95 3.08 C 326.23 2.90 349.51 3.05 372.79 3.00 C 372.15 5.62 371.50 8.23 371.01 10.88 C 355.99 11.19 340.97 10.85 325.95 11.05 C 320.31 11.16 316.17 15.99 314.70 21.09 C 311.84 30.26 309.90 39.70 307.42 48.99 C 320.16 49.01 332.91 49.00 345.66 49.00 C 345.15 51.00 344.64 53.00 344.16 55.00 C 331.39 55.03 318.63 54.94 305.86 55.05 C 304.07 63.06 301.76 70.95 300.05 78.98 C 298.81 84.53 299.79 90.93 303.91 95.10 C 307.50 98.89 313.02 99.90 318.02 100.00 C 328.17 100.01 338.32 99.99 348.47 100.00 C 347.78 102.68 347.11 105.35 346.40 108.02 C 336.26 107.97 326.12 108.02 315.98 108.00 C 308.14 107.65 299.83 106.47 293.38 101.64 C 288.11 97.78 285.04 91.42 284.58 84.97 C 283.85 77.41 286.39 70.11 288.10 62.85 C 293.02 42.92 298.17 23.04 302.95 3.08 Z" />
<path fill="#38332b" opacity="1.00" d=" M 379.01 3.14 C 407.99 2.83 436.99 3.07 465.98 3.02 C 465.08 6.67 464.45 10.41 463.14 13.94 C 451.38 14.12 439.60 13.90 427.83 14.04 C 420.13 45.37 412.15 76.62 404.44 107.94 C 399.12 108.06 393.80 107.98 388.48 108.00 C 396.37 76.69 404.22 45.37 411.96 14.03 C 400.12 13.97 388.27 14.01 376.43 14.00 C 377.39 10.41 378.35 6.81 379.01 3.14 Z" />
<path fill="#38332b" opacity="1.00" d=" M 542.41 5.61 C 559.56 0.63 578.17 3.38 594.52 9.90 C 592.70 13.79 591.07 17.76 589.68 21.82 C 580.87 15.05 569.78 12.52 558.99 11.04 C 550.74 11.20 541.74 13.97 536.63 20.86 C 534.71 23.96 532.73 28.01 534.54 31.60 C 536.76 36.72 541.43 40.20 546.25 42.69 C 553.62 46.40 561.22 49.64 568.61 53.31 C 576.52 57.17 581.13 66.45 579.87 75.08 C 579.04 83.12 575.05 90.69 569.12 96.14 C 560.89 104.11 549.30 107.86 538.00 108.03 C 525.77 108.02 513.81 105.05 502.18 101.53 C 503.96 97.65 505.50 93.66 506.99 89.65 C 515.18 98.21 527.68 100.09 538.99 100.01 C 546.71 100.04 555.48 97.64 559.61 90.54 C 564.06 82.94 564.14 71.20 556.42 65.67 C 547.97 61.48 538.82 58.81 530.32 54.71 C 525.35 52.22 520.83 48.26 518.93 42.91 C 515.94 35.41 519.01 27.20 522.44 20.42 C 526.44 12.71 534.26 7.91 542.41 5.61 Z" />
<path fill="#38332b" opacity="1.00" d=" M 608.95 3.08 C 632.23 2.90 655.52 3.05 678.80 3.01 C 678.15 5.62 677.50 8.23 677.01 10.88 C 662.32 11.17 647.62 10.91 632.93 11.01 C 629.32 10.92 625.69 12.60 623.53 15.51 C 621.35 18.44 620.31 22.01 619.37 25.48 C 617.30 33.30 615.44 41.16 613.42 48.99 C 626.16 49.02 638.91 48.99 651.66 49.00 C 651.14 51.00 650.63 53.00 650.14 55.01 C 637.38 55.02 624.62 54.94 611.87 55.05 C 610.07 63.07 607.76 70.96 606.05 79.00 C 604.82 84.53 605.79 90.89 609.86 95.05 C 613.45 98.88 619.00 99.90 624.03 100.00 C 634.17 100.01 644.31 99.99 654.46 100.00 C 653.78 102.66 653.12 105.32 652.46 107.98 C 641.98 107.99 631.49 108.04 621.01 107.97 C 612.15 107.50 602.40 105.67 596.21 98.73 C 590.01 91.85 589.45 81.74 591.58 73.12 C 597.26 49.74 603.34 26.47 608.95 3.08 Z" />
<path fill="#38332b" opacity="1.00" d=" M 682.15 13.99 C 683.03 10.32 683.99 6.67 684.85 3.00 C 713.81 3.01 742.77 2.99 771.73 3.01 C 770.83 6.65 769.86 10.27 769.07 13.94 C 757.24 14.08 745.42 13.96 733.59 14.00 C 725.68 45.31 717.85 76.65 710.08 108.00 C 704.79 108.00 699.50 108.00 694.21 108.00 C 702.02 76.67 709.87 45.34 717.70 14.01 C 705.85 13.98 694.00 14.03 682.15 13.99 Z" />
<path fill="#38332b" opacity="1.00" d=" M 460.97 65.09 C 472.57 64.89 484.18 65.05 495.79 65.00 C 494.93 68.67 493.97 72.32 493.11 75.99 C 481.52 76.01 469.92 76.00 458.33 76.00 C 459.27 72.38 460.24 68.76 460.97 65.09 Z" />
<path fill="#38332b" opacity="1.00" d=" M 20.49 83.39 C 73.31 83.51 126.14 83.27 178.96 83.31 C 181.10 83.32 183.23 83.20 185.35 82.96 C 178.95 96.81 172.62 110.69 166.37 124.61 C 119.59 124.60 72.80 124.71 26.02 124.72 C 24.22 124.73 22.42 124.85 20.63 124.99 C 20.55 111.12 20.73 97.25 20.49 83.39 Z" />
</g>
<g id="#d01e23ff">
<path fill="#d01e23" opacity="1.00" d=" M 4.00 5.67 C 8.32 5.68 12.64 5.67 16.97 5.66 C 16.79 7.44 16.63 9.22 16.62 11.01 C 16.69 44.00 16.70 76.99 16.75 109.98 C 16.78 115.19 16.57 120.42 17.11 125.63 C 12.86 125.57 8.61 125.53 4.36 125.69 C 4.70 88.13 4.31 50.57 4.43 13.01 C 4.47 10.56 4.34 8.10 4.00 5.67 Z" />
<path fill="#d01e23" opacity="1.00" d=" M 491.07 124.21 C 492.44 119.59 497.39 117.10 501.94 116.92 C 505.02 116.77 508.58 116.76 510.96 119.07 C 512.37 120.68 511.93 123.08 511.42 124.98 C 510.09 129.37 508.63 133.73 507.24 138.11 C 506.24 138.10 504.25 138.09 503.26 138.08 C 504.27 134.91 505.29 131.74 506.35 128.58 C 502.12 128.56 497.89 128.57 493.66 128.56 C 492.61 131.61 491.65 134.69 490.82 137.80 C 489.40 137.91 487.98 138.00 486.57 138.08 C 488.18 133.50 489.49 128.81 491.07 124.21 M 497.92 119.84 C 495.47 121.44 494.96 124.50 494.07 127.07 C 498.29 127.48 502.53 127.51 506.77 127.40 C 507.15 124.89 509.54 121.74 507.33 119.54 C 504.48 117.70 500.71 118.15 497.92 119.84 Z" />
<path fill="#d01e23" opacity="1.00" d=" M 517.03 117.14 C 518.44 117.09 519.85 117.04 521.26 117.01 C 519.56 122.28 517.51 127.48 516.26 132.89 C 515.58 135.63 518.86 136.70 520.98 136.72 C 524.17 136.80 527.93 135.39 528.95 132.06 C 530.73 127.09 532.21 122.02 533.85 117.00 C 534.84 117.00 536.82 117.01 537.81 117.02 C 536.24 121.78 534.85 126.60 533.19 131.32 C 531.77 135.53 527.24 137.79 523.05 138.06 C 519.92 138.18 516.32 138.49 513.78 136.28 C 512.21 135.03 512.13 132.79 512.72 131.03 C 514.05 126.37 515.83 121.84 517.03 117.14 Z" />
<path fill="#d01e23" opacity="1.00" d=" M 539.30 118.93 C 539.66 116.46 542.20 117.08 544.02 116.98 C 550.25 117.09 556.49 116.81 562.71 117.19 C 560.96 120.49 556.82 118.58 553.87 119.10 C 552.28 118.58 552.21 120.49 551.76 121.41 C 549.99 126.99 548.23 132.58 546.36 138.13 C 545.38 138.11 543.42 138.09 542.44 138.07 C 544.56 131.77 546.47 125.41 548.61 119.12 C 545.50 119.04 542.40 119.01 539.30 118.93 Z" />
<path fill="#d01e23" opacity="1.00" d=" M 568.25 118.42 C 572.33 117.16 577.26 116.68 581.03 119.07 C 583.46 120.60 582.80 123.80 582.07 126.09 C 580.81 129.78 580.05 134.25 576.39 136.40 C 572.03 139.01 566.22 139.38 561.59 137.30 C 557.74 135.13 560.01 130.40 561.01 127.21 C 561.93 123.35 564.30 119.66 568.25 118.42 M 571.26 119.26 C 568.23 119.88 566.20 122.46 565.57 125.38 C 564.81 128.66 562.57 131.98 563.57 135.42 C 565.84 137.66 569.58 137.36 572.35 136.29 C 575.94 134.85 576.49 130.64 577.68 127.44 C 578.27 125.20 579.51 122.74 578.50 120.44 C 576.55 118.67 573.67 118.77 571.26 119.26 Z" />
<path fill="#d01e23" opacity="1.00" d=" M 598.91 122.98 C 602.36 117.51 609.97 116.79 615.70 118.38 C 619.58 119.49 619.69 124.72 617.26 127.29 C 613.11 132.22 605.79 132.45 600.04 130.69 C 599.25 133.41 598.40 136.12 597.56 138.82 C 596.18 138.82 594.82 138.82 593.47 138.81 C 595.48 133.60 596.59 128.06 598.91 122.98 M 607.37 119.50 C 603.59 120.28 601.13 124.31 601.71 128.03 C 605.05 131.84 612.63 130.37 614.44 125.59 C 615.00 123.96 616.00 121.90 614.46 120.50 C 612.49 118.91 609.70 118.78 607.37 119.50 Z" />
<path fill="#d01e23" opacity="1.00" d=" M 621.92 124.13 C 624.12 118.73 630.74 117.21 636.01 117.75 C 638.94 117.80 642.68 119.50 642.55 122.93 C 641.48 128.37 639.26 133.52 637.84 138.87 C 636.44 138.93 635.04 138.97 633.66 139.00 C 634.77 135.79 635.80 132.56 636.84 129.32 C 632.61 129.29 628.38 129.28 624.15 129.33 C 623.13 132.50 622.11 135.67 621.10 138.85 C 619.76 138.85 618.42 138.84 617.10 138.85 C 618.76 133.96 620.15 128.98 621.92 124.13 M 628.54 120.58 C 625.94 122.11 625.53 125.37 624.47 127.93 C 628.71 128.19 632.97 128.18 637.23 128.16 C 637.79 125.77 639.50 123.13 638.23 120.73 C 635.52 118.40 631.43 118.82 628.54 120.58 Z" />
<path fill="#d01e23" opacity="1.00" d=" M 645.86 123.87 C 648.91 117.91 656.84 116.93 662.70 118.45 C 665.42 119.18 667.15 122.23 666.05 124.90 C 664.76 128.72 660.94 130.86 657.19 131.59 C 659.64 133.41 658.69 136.40 658.17 138.90 C 656.80 138.95 655.44 138.99 654.09 139.04 C 654.36 137.14 655.25 135.17 654.67 133.27 C 652.45 131.99 649.99 131.21 647.68 130.15 C 646.74 133.05 645.81 135.95 644.99 138.88 C 643.64 138.93 642.29 138.98 640.95 139.02 C 642.55 133.96 643.97 128.83 645.86 123.87 M 653.28 120.24 C 650.30 121.29 649.49 124.55 648.50 127.17 C 650.04 130.82 654.52 130.56 657.74 129.74 C 660.88 128.56 662.63 125.15 662.57 121.92 C 660.88 118.62 656.21 118.94 653.28 120.24 Z" />
<path fill="#d01e23" opacity="1.00" d=" M 668.82 119.70 C 669.13 119.30 669.74 118.48 670.04 118.07 C 674.36 117.66 678.71 118.03 683.05 117.91 C 686.22 118.02 689.60 117.36 692.57 118.83 C 689.44 120.88 685.54 119.70 682.05 120.10 C 680.20 126.43 678.03 132.67 676.09 138.97 C 674.75 138.98 673.42 138.98 672.10 138.98 C 674.14 132.68 676.10 126.36 678.26 120.10 C 675.11 119.92 671.96 119.85 668.82 119.70 Z" />
<path fill="#d01e23" opacity="1.00" d=" M 694.24 120.24 C 699.31 116.87 705.77 117.96 711.34 119.34 C 711.06 119.94 710.52 121.13 710.25 121.73 C 706.53 120.22 702.25 119.00 698.33 120.43 C 696.63 121.00 695.32 122.87 696.43 124.58 C 699.42 126.93 703.52 127.18 706.55 129.46 C 708.78 131.72 707.22 135.39 704.86 136.89 C 699.78 140.40 692.88 139.45 687.39 137.43 C 689.41 134.54 692.44 137.64 695.10 137.50 C 698.62 138.25 704.48 136.69 703.21 131.99 C 700.41 128.89 695.26 129.76 692.51 126.61 C 690.70 124.57 692.58 121.73 694.24 120.24 Z" />
</g>
<g id="#bfb290ff">
<path fill="#bfb290" opacity="1.00" d=" M 20.46 5.58 C 55.34 5.76 90.23 5.48 125.12 5.66 C 120.03 17.03 114.65 28.27 109.64 39.69 C 79.90 39.57 50.15 39.88 20.40 39.64 C 20.65 28.29 20.48 16.94 20.46 5.58 Z" />
</g>
<g id="#6a5e50ff">
<path fill="#6a5e50" opacity="1.00" d=" M 20.45 43.31 C 63.61 43.32 106.78 43.36 149.94 43.13 C 144.34 55.27 138.88 67.48 133.50 79.72 C 99.02 79.73 64.53 79.80 30.04 79.81 C 26.89 79.82 23.74 80.10 20.58 80.20 C 20.50 67.91 20.67 55.61 20.45 43.31 Z" />
</g>
</svg>
