<?xml version="1.0" encoding="iso-8859-1"?>
<!-- Generator: Adobe Illustrator 19.0.0, SVG Export Plug-In . SVG Version: 6.00 Build 0)  -->
<svg xmlns="http://www.w3.org/2000/svg" xmlns:xlink="http://www.w3.org/1999/xlink" version="1.1" id="Layer_1" x="0px" y="0px" viewBox="0 0 512 512" style="enable-background:new 0 0 512 512;" xml:space="preserve" width="512px" height="512px">
<g>
	<g>
		<path d="M337.434,0c-95.281,0-172.797,77.516-172.797,172.796c0,95.282,77.516,172.797,172.797,172.797    c95.28,0,172.796-77.515,172.796-172.797C510.23,77.516,432.713,0,337.434,0z M337.434,312.788    c-77.191,0-139.992-62.8-139.992-139.992S260.242,32.805,337.434,32.805s139.991,62.8,139.991,139.991    S414.625,312.788,337.434,312.788z" fill="#D80027"/>
	</g>
</g>
<g>
	<g>
		<path d="M253.674,290.411c-6.595-6.207-16.976-5.896-23.186,0.702L56.905,475.509c-5.16,4.988-13.417,4.944-18.481-0.112    c-5.104-5.119-5.16-13.39-0.159-18.532L222.61,283.281c6.595-6.209,6.908-16.59,0.697-23.186    c-6.209-6.595-16.589-6.908-23.186-0.697L15.566,433.178c-0.117,0.11-0.232,0.221-0.346,0.335    c-17.928,17.902-17.94,47.081,0,65.072C24.177,507.529,35.945,512,47.717,512c11.766,0,23.537-4.469,32.5-13.406    c0.123-0.122,0.243-0.246,0.362-0.372l173.795-184.625C260.585,307.002,260.271,296.621,253.674,290.411z" fill="#D80027"/>
	</g>
</g>
<g>
	<g>
		<path d="M419.517,90.74c-21.907-21.925-51.054-34.001-82.07-34.001c-31.014,0-60.168,12.073-82.095,34.001    c-45.203,45.241-45.205,118.87,0.007,164.137c21.923,21.914,51.074,33.982,82.088,33.982c31.015,0,60.161-12.071,82.07-33.987    C464.757,209.611,464.756,135.979,419.517,90.74z M396.312,231.681c-15.71,15.716-36.616,24.372-58.866,24.372    c-22.253,0-43.169-8.658-58.885-24.368c-32.434-32.473-32.435-85.299-0.009-117.753c15.727-15.727,36.642-24.387,58.893-24.387    c22.249,0,43.154,8.66,58.87,24.388C428.771,146.387,428.77,199.21,396.312,231.681z" fill="#D80027"/>
	</g>
</g>
<g>
</g>
<g>
</g>
<g>
</g>
<g>
</g>
<g>
</g>
<g>
</g>
<g>
</g>
<g>
</g>
<g>
</g>
<g>
</g>
<g>
</g>
<g>
</g>
<g>
</g>
<g>
</g>
<g>
</g>
</svg>
